<!DOCTYPE svg PUBLIC "-//W3C//DTD SVG 1.1//EN" "http://www.w3.org/Graphics/SVG/1.1/DTD/svg11.dtd">
<!-- Uploaded to: SVG Repo, www.svgrepo.com, Transformed by: SVG Repo Mixer Tools -->
<svg fill="#7dc400" version="1.1" id="Layer_1" xmlns="http://www.w3.org/2000/svg" xmlns:xlink="http://www.w3.org/1999/xlink" viewBox="0 0 512 512" xml:space="preserve" width="800px" height="800px" stroke="#7dc400">
<g id="SVGRepo_bgCarrier" stroke-width="0"/>
<g id="SVGRepo_tracerCarrier" stroke-linecap="round" stroke-linejoin="round"/>
<g id="SVGRepo_iconCarrier"> <g> <g> <rect x="333.913" y="100.174" width="77.913" height="33.391"/> </g> </g> <g> <g> <rect x="333.913" y="211.478" width="77.913" height="33.391"/> </g> </g> <g> <g> <rect x="411.826" y="133.565" width="33.391" height="77.913"/> </g> </g> <g> <g> <rect x="300.522" y="133.565" width="33.391" height="77.913"/> </g> </g> <g> <g> <rect x="155.826" width="66.783" height="33.391"/> </g> </g> <g> <g> <rect x="155.826" y="100.174" width="66.783" height="33.391"/> </g> </g> <g> <g> <rect x="222.609" y="33.391" width="33.391" height="66.783"/> </g> </g> <g> <g> <rect x="122.435" y="33.391" width="33.391" height="66.783"/> </g> </g> <g> <g> <rect y="278.261" width="100.174" height="233.739"/> </g> </g> <g> <g> <polygon points="389.565,311.652 389.565,345.043 345.043,345.043 345.043,378.435 211.478,378.435 211.478,345.043 345.043,345.043 345.043,278.261 133.565,278.261 133.565,478.609 166.957,478.609 166.957,512 345.043,512 345.043,478.609 411.826,478.609 411.826,445.217 445.217,445.217 445.217,411.826 478.609,411.826 478.609,378.435 512,378.435 512,311.652 "/> </g> </g> </g>
</svg>